<?xml version="1.0" encoding="utf-8"?>
<!-- Generator: Adobe Illustrator 23.0.0, SVG Export Plug-In . SVG Version: 6.00 Build 0)  -->
<svg version="1.1" id="Layer_1" xmlns="http://www.w3.org/2000/svg" xmlns:xlink="http://www.w3.org/1999/xlink" x="0px" y="0px"
	 viewBox="0 0 300 56" style="enable-background:new 0 0 300 56;" xml:space="preserve">
<style type="text/css">
	.st0{fill:#DC228E;}
	.st1{fill:#C41E63;}
	.st2{fill:#FFFFFF;}
</style>
<g>
	<g>
		<polygon class="st0" points="14.7,23.4 23.6,16.3 23.6,2.5 4,18 4,45.1 14.7,37 		"/>
		<polyline class="st1" points="23.6,30.2 4,45.1 15.4,53.5 23.6,47.1 23.6,30.2 		"/>
		<polygon class="st0" points="43.1,23.4 34.2,16.3 34.2,2.5 53.8,18 53.8,45.1 43.1,37 		"/>
		<polyline class="st1" points="34.2,30.2 53.8,45.1 42.5,53.5 34.2,47.1 34.2,30.2 		"/>
	</g>
	<g>
		<path class="st2" d="M88.2,30.6h-7.3l3.7-7.7L88.2,30.6z M84,15.7l-12.7,27h4l4-8.5h10.6l4.1,8.5h3.9l-12.6-27H84z"/>
		<g>
			<path class="st2" d="M110.2,27.1c-2.3-1.7-3.1-2.3-3.3-2.5c-0.6-0.6-1-1.1-1.2-1.6c-0.2-0.5-0.3-0.9-0.3-1.4c0-0.8,0.3-1.4,0.8-2
				c0.6-0.5,1.3-0.8,2.2-0.8c0.7,0,1.4,0.2,2,0.5c0.6,0.4,1.4,1.2,2.4,2.4l0.3,0.4l2.9-2.2l-0.3-0.4c-1.2-1.7-2.4-2.8-3.5-3.5
				c-2.2-1.3-5-1.3-7.1-0.1c-1.1,0.6-1.9,1.4-2.5,2.4c-0.6,1-0.9,2.1-0.9,3.3c0,1.5,0.5,3,1.5,4.3c0.6,0.8,1.9,2,4.1,3.7
				c2.1,1.6,3.6,3,4.3,4.1c0.5,0.7,0.8,1.5,0.8,2.3c0,0.7-0.2,1.3-0.5,1.9c-0.4,0.6-0.9,1.1-1.6,1.4c-0.7,0.4-1.4,0.6-2.2,0.6
				c-1.8,0-3.5-1.4-4.9-4l-0.2-0.5l-3.1,1.8l0.2,0.4c1.1,2,2.4,3.5,3.7,4.4c1.4,0.9,2.9,1.3,4.6,1.3c2.2,0,4-0.7,5.6-2.2
				c1.5-1.5,2.3-3.3,2.3-5.3c0-1.4-0.4-2.8-1.3-4.2C114.1,30.3,112.5,28.7,110.2,27.1"/>
			<path class="st2" d="M134.7,23.1c0,0.8-0.2,1.5-0.6,2.2c-0.4,0.6-1,1.1-1.7,1.4c-0.8,0.3-2,0.4-3.7,0.4l-3.9,0v-7.8h4.1
				c1.7,0,2.9,0.1,3.6,0.4c0.7,0.3,1.2,0.7,1.6,1.4C134.5,21.6,134.7,22.3,134.7,23.1 M133,16.1c-1.1-0.3-3.1-0.4-6.1-0.4h-5.7v27
				h3.6V30.6h1.4c3.3,0,5.5-0.1,6.7-0.4c1.7-0.4,3.1-1.2,4.1-2.4c1-1.2,1.5-2.8,1.5-4.6c0-1.8-0.5-3.4-1.5-4.6
				C135.9,17.3,134.6,16.5,133,16.1"/>
		</g>
		<polygon class="st2" points="142.1,42.6 157.9,42.6 157.9,39.1 145.7,39.1 145.7,29.9 157.9,29.9 157.9,26.3 145.7,26.3 
			145.7,19.2 158,19.2 158,15.7 142.1,15.7 		"/>
		<polygon class="st2" points="181.6,34.7 165.1,15.7 163.8,15.7 163.8,42.6 167.5,42.6 167.5,23.8 183.9,42.6 185.2,42.6 
			185.2,15.7 181.6,15.7 		"/>
		<polygon class="st2" points="228.7,15.7 218.6,36.3 208.3,15.7 207.1,15.7 203.3,42.6 206.8,42.6 209.2,25.1 217.9,42.6 
			219.2,42.6 227.8,25.2 230.2,42.6 233.7,42.6 229.9,15.7 		"/>
		<polygon class="st2" points="238.7,42.6 254.4,42.6 254.4,39.1 242.3,39.1 242.3,29.9 254.4,29.9 254.4,26.3 242.3,26.3 
			242.3,19.2 254.5,19.2 254.5,15.7 238.7,15.7 		"/>
		<g>
			<path class="st2" d="M267.8,27.1c-2.3-1.7-3.1-2.3-3.3-2.5c-0.6-0.6-1-1.1-1.2-1.6c-0.2-0.5-0.3-0.9-0.3-1.4c0-0.8,0.3-1.4,0.8-2
				c0.6-0.5,1.3-0.8,2.2-0.8c0.7,0,1.4,0.2,2,0.5c0.6,0.4,1.4,1.2,2.4,2.4l0.3,0.4l2.9-2.2l-0.3-0.4c-1.2-1.7-2.4-2.8-3.5-3.5
				c-2.2-1.3-5-1.3-7.1-0.1c-1.1,0.6-1.9,1.4-2.5,2.4c-0.6,1-0.9,2.1-0.9,3.3c0,1.5,0.5,3,1.5,4.3c0.6,0.8,1.9,2,4.1,3.7
				c2.1,1.6,3.6,3,4.3,4.1c0.5,0.7,0.8,1.5,0.8,2.3c0,0.7-0.2,1.3-0.5,1.9c-0.4,0.6-0.9,1.1-1.6,1.4c-0.7,0.4-1.4,0.6-2.2,0.6
				c-1.8,0-3.5-1.4-4.9-4l-0.2-0.5l-3.1,1.8l0.2,0.4c1.1,2,2.4,3.5,3.7,4.4c1.4,0.9,2.9,1.3,4.6,1.3c2.2,0,4-0.7,5.6-2.2
				c1.5-1.5,2.3-3.3,2.3-5.3c0-1.4-0.4-2.8-1.3-4.2C271.7,30.3,270.1,28.7,267.8,27.1"/>
		</g>
		<polygon class="st2" points="293.3,15.7 293.3,26.6 281.1,26.6 281.1,15.7 277.5,15.7 277.5,42.6 281.1,42.6 281.1,30.1 
			293.3,30.1 293.3,42.6 296.9,42.6 296.9,15.7 		"/>
	</g>
</g>
</svg>
