<svg fill="none" height="51" width="164" xmlns="http://www.w3.org/2000/svg"><path d="m.858 16.905c0-7.67 5.232-14.136 12.328-16.026-3.014 2.931-5.068 8.93-5.068 16.026 0 7.095 2.027 13.095 5.068 16.026-7.068-1.863-12.328-8.328-12.328-16.026z" fill="#64f9bf"/><path d="m21.678 32.931c3.014-2.931 5.068-8.93 5.068-16.026 0-7.095-2.027-13.095-5.068-16.026 7.095 1.89 12.328 8.355 12.328 16.026 0 7.698-5.233 14.163-12.328 16.026z" fill="#02a398"/><path d="m17.432.358c4.3 0 7.944 7.588 7.944 16.574 0 8.985-3.643 16.574-7.944 16.574s-7.945-7.589-7.945-16.574c.028-8.986 3.644-16.574 7.945-16.574zm6.574 41.202v5.425c0 1.67-1.37 3.04-3.04 3.04h-7.04a3.052 3.052 0 0 1 -3.042-3.04v-5.425zm-9.341-.931-4.41-7.233a15.125 15.125 0 0 1 -2.192-1.15l5.095 8.383zm3.479 0v-5.809c-.219.027-.466.055-.685.055s-.465-.028-.685-.055v5.808h1.37zm6.164-7.124-4.328 7.123h1.506l4.986-8.191a15.87 15.87 0 0 1 -2.164 1.068z" fill="#01c1b4"/><path d="m58.88 24.383c0 .11.137.274.438.466.302.191.603.438.96.794.355.356.657.794.958 1.342.302.548.439 1.26.439 2.11a5.66 5.66 0 0 1 -.466 2.3 5.036 5.036 0 0 1 -1.26 1.754c-.52.466-1.151.85-1.863 1.096a7.158 7.158 0 0 1 -2.329.384h-9.835c-.219 0-.465-.083-.712-.247-.246-.164-.356-.356-.356-.603v-17.231c0-.356.137-.63.438-.795.274-.164.576-.246.904-.246h8.849c.767 0 1.507.11 2.164.329.685.219 1.26.548 1.753.986s.877.986 1.178 1.616c.274.63.439 1.37.439 2.164 0 .603-.083 1.123-.274 1.534a6.46 6.46 0 0 1 -.603 1.069c-.22.301-.41.52-.603.712-.191.192-.219.356-.219.466zm-10.492-1.78c0 .163.055.3.192.383.11.11.274.164.438.164h5.698c.658 0 1.206-.192 1.671-.575.466-.384.713-.904.713-1.59 0-.684-.247-1.205-.713-1.588-.465-.356-1.013-.548-1.67-.548h-5.617a.728.728 0 0 0 -.438.164.454.454 0 0 0 -.22.411v3.178h-.054zm0 8.053c0 .192.055.356.192.466s.301.164.465.164h6.329c.356 0 .684-.055 1.013-.164.329-.11.63-.247.877-.466.246-.191.466-.438.603-.74.164-.3.219-.63.219-1.013 0-.384-.082-.712-.22-1.014a2.306 2.306 0 0 0 -.602-.74 2.974 2.974 0 0 0 -.877-.465 3.19 3.19 0 0 0 -1.04-.164h-6.302a.765.765 0 0 0 -.493.164.548.548 0 0 0 -.219.466v3.506zm28.134-10.957c.165 0 .356 0 .603-.028.22 0 .466 0 .657.055.22.028.384.11.521.22.137.109.22.3.22.52v7.944c0 .96-.165 1.836-.521 2.658s-.822 1.506-1.425 2.082a6.3 6.3 0 0 1 -2.11 1.342 7.055 7.055 0 0 1 -2.657.493 7.055 7.055 0 0 1 -2.657-.493 6.459 6.459 0 0 1 -2.11-1.342c-.602-.576-1.068-1.26-1.424-2.082s-.52-1.699-.52-2.658v-3.972c0-1.315 0-2.63.027-3.972 0-.274.11-.493.329-.603s.438-.192.657-.192h.63c.247 0 .466.028.713.083.219.054.41.136.575.273.164.137.22.33.22.603 0 1.26 0 2.52-.028 3.753 0 1.26-.028 2.493-.028 3.753 0 .52.082.987.247 1.452.164.466.41.85.74 1.178.3.33.684.603 1.123.795.438.192.904.301 1.452.301.52 0 1.013-.11 1.424-.301a3.634 3.634 0 0 0 1.123-.795c.302-.328.548-.74.74-1.178.164-.465.247-.931.247-1.452v-7.67c0-.302.136-.52.383-.63.329-.082.575-.137.85-.137zm5.617 7.534c0-.986.191-1.918.548-2.85a7.332 7.332 0 0 1 1.588-2.465 7.808 7.808 0 0 1 2.548-1.753c1.014-.438 2.164-.658 3.425-.658 1.26 0 2.41.22 3.424.658a7.809 7.809 0 0 1 2.548 1.753 7.777 7.777 0 0 1 1.589 2.466c.356.931.547 1.89.547 2.849s-.191 1.917-.547 2.849a7.332 7.332 0 0 1 -1.59 2.465 7.809 7.809 0 0 1 -2.547 1.754c-1.014.438-2.164.657-3.424.657s-2.411-.22-3.425-.657a7.808 7.808 0 0 1 -2.547-1.754 7.777 7.777 0 0 1 -1.59-2.465 7.75 7.75 0 0 1 -.547-2.85zm3.342 0c0 .657.11 1.287.356 1.863.22.575.575 1.068.986 1.506.439.439.932.767 1.507 1.014a4.99 4.99 0 0 0 3.835 0 4.862 4.862 0 0 0 1.507-1.014c.438-.438.767-.931.986-1.506.247-.576.356-1.206.356-1.863 0-.658-.11-1.288-.356-1.863a5.127 5.127 0 0 0 -.986-1.507 4.713 4.713 0 0 0 -1.507-1.014 4.992 4.992 0 0 0 -3.835 0 4.86 4.86 0 0 0 -1.507 1.014 4.233 4.233 0 0 0 -.986 1.507 5.239 5.239 0 0 0 -.356 1.863zm26.847 7.724c0-.192-.027-.411-.11-.603-.082-.192-.246-.301-.493-.301-.109 0-.219.027-.356.055a.931.931 0 0 0 -.329.11c-.52.3-1.013.52-1.479.63a7.132 7.132 0 0 1 -1.644.191c-.931 0-1.78-.164-2.52-.52a5.73 5.73 0 0 1 -1.89-1.425 6.091 6.091 0 0 1 -1.178-2.11c-.274-.794-.384-1.643-.384-2.547 0-1.343 0-2.658.028-4 0-1.315.027-2.657.027-4 0-.219.082-.383.219-.493.165-.11.329-.164.521-.219s.411-.082.63-.082h.52c.22 0 .493.055.767.192.302.11.439.329.439.602v8.11c0 1.095.301 1.944.904 2.575.602.63 1.452.931 2.548.931 1.205 0 2.136-.356 2.739-1.041.63-.685.931-1.616.931-2.767v-7.835c.11-.246.22-.41.384-.52s.329-.192.52-.22c.192-.027.384-.027.603-.027s.411.027.63.027c.274 0 .493.055.713.192.219.11.328.329.328.603v13.752c0 .932-.192 1.78-.548 2.575a6.49 6.49 0 0 1 -1.452 2.055 6.153 6.153 0 0 1 -2.136 1.342 6.98 6.98 0 0 1 -2.603.493c-1.041 0-1.972-.137-2.822-.41-.849-.274-1.643-.768-2.41-1.48-.028-.11-.083-.192-.083-.301-.027-.082-.027-.192-.027-.301 0-.192.055-.384.164-.603.11-.22.22-.411.384-.576a4.22 4.22 0 0 1 .548-.438 1.25 1.25 0 0 1 .603-.164c.191 0 .41.055.63.191.219.137.438.274.712.439.274.164.575.301.904.438.356.137.74.192 1.205.192.713 0 1.37-.164 2.028-.466.63-.301 1.123-.794 1.479-1.452.027-.054.109-.191.192-.383.137-.22.164-.329.164-.411zm19.258-1.15c-.109-.192-.246-.274-.438-.274-.11 0-.274.082-.52.219-.247.164-.576.328-.987.52-.383.192-.849.356-1.342.52-.493.165-1.041.22-1.616.22-1.096 0-2.11-.192-3.041-.603a7.835 7.835 0 0 1 -2.411-1.643 7.785 7.785 0 0 1 -1.589-2.466 8.121 8.121 0 0 1 -.575-3.04c0-1.042.219-2.055.63-2.987a8.095 8.095 0 0 1 1.698-2.465c.713-.713 1.535-1.26 2.466-1.699a7.388 7.388 0 0 1 2.986-.63c.575 0 1.123.082 1.589.22.466.136.904.3 1.26.465.356.164.658.329.904.466.247.137.438.219.548.219s.274-.055.438-.192c0-.301.028-.52.11-.657a.648.648 0 0 1 .356-.302c.164-.055.329-.082.548-.082h.712c.274 0 .576.027.85.082.273.055.465.247.602.52v14.054c0 .11-.082.22-.219.329a4.103 4.103 0 0 1 -.493.247c-.192.082-.356.11-.548.164-.192.027-.329.055-.438.055-.082 0-.192-.028-.356-.055-.165-.027-.329-.082-.494-.11a2.127 2.127 0 0 1 -.438-.191c-.137-.083-.192-.165-.192-.274zm-8.93-6.493c0 .657.109 1.233.328 1.78a4.123 4.123 0 0 0 2.302 2.33c.547.218 1.15.328 1.78.328.658 0 1.233-.11 1.754-.356.52-.247.958-.576 1.314-.986.357-.411.631-.877.822-1.425a5.23 5.23 0 0 0 .302-1.753c0-.63-.083-1.206-.274-1.753-.192-.548-.439-1.014-.795-1.425s-.794-.712-1.287-.959a4.452 4.452 0 0 0 -1.754-.356c-.657 0-1.26.11-1.78.356-.548.247-1.014.548-1.425.986-.383.411-.712.904-.904 1.452-.274.52-.383 1.123-.383 1.781zm16.765-6.794c0-.19.083-.355.22-.465a1.74 1.74 0 0 1 .52-.219c.192-.055.411-.082.63-.082s.384-.027.521-.027c.356 0 .602.054.739.191.165.11.274.247.356.384.083.137.165.274.247.383.082.11.247.192.466.192.082 0 .219-.082.438-.22.192-.136.466-.3.795-.465a6.998 6.998 0 0 1 1.178-.465c.465-.137.958-.22 1.534-.22.904 0 1.698.165 2.41.493a5.181 5.181 0 0 1 1.781 1.343c.493.575.849 1.233 1.123 2s.384 1.561.384 2.41v8.301a.537.537 0 0 1 -.247.466c-.164.11-.356.191-.575.219-.219.027-.438.055-.685.082-.246 0-.411.028-.52.028-.22 0-.466-.055-.74-.192-.274-.11-.384-.329-.384-.603v-8.027c0-.465-.082-.904-.246-1.315a3.517 3.517 0 0 0 -.658-1.068 3.46 3.46 0 0 0 -1.013-.74c-.384-.192-.822-.274-1.315-.274-1.151 0-2.082.33-2.767.987s-1.041 1.561-1.041 2.767v7.78c-.219.356-.521.52-.849.575-.329.027-.685.055-1.069.055-.274 0-.52-.028-.739-.11-.192-.082-.384-.274-.521-.548v-13.615h.027zm17.095-.767c.164 0 .329 0 .466.028.164 0 .301 0 .411-.028a.521.521 0 0 0 .301-.192c.082-.082.11-.246.11-.465v-2.767c.109-.192.246-.356.438-.52.192-.165.383-.33.603-.466a3.14 3.14 0 0 1 .685-.33c.219-.081.438-.109.657-.109.164 0 .329.082.521.22.191.136.273.3.273.465l.028 3.315c0 .22.027.438.082.63s.247.301.521.301c.219 0 .438 0 .657-.027.219 0 .438-.027.658-.027.191 0 .356.082.465.246.11.165.192.356.247.575.055.22.082.439.082.658 0 .22.027.383.027.52 0 .357-.082.576-.219.74a.876.876 0 0 1 -.52.274 4.92 4.92 0 0 1 -.658.055c-.246 0-.466 0-.657.027-.192.028-.384.082-.521.192s-.219.301-.219.575l.027 5.068c0 .63.083 1.15.22 1.535.164.383.328.712.548.93.219.248.438.412.684.521.247.11.466.247.685.357s.384.246.521.356c.137.137.219.328.219.602 0 .192-.027.384-.11.603-.082.22-.191.411-.328.603a2.69 2.69 0 0 1 -.466.493.837.837 0 0 1 -.548.192.878.878 0 0 1 -.384-.083 20.17 20.17 0 0 1 -1.753-.986c-.52-.329-.959-.685-1.315-1.123a4.513 4.513 0 0 1 -.849-1.452c-.192-.548-.301-1.205-.301-2v-5.67c0-.192-.028-.357-.11-.576-.082-.192-.219-.301-.438-.301-.384 0-.685-.027-.877-.082s-.356-.165-.438-.302a1.308 1.308 0 0 1 -.165-.548c0-.246-.027-.52-.027-.849 0-.219.055-.493.164-.767.137-.246.329-.41.603-.41z" fill="#001443"/></svg>