<?xml version="1.0" encoding="UTF-8"?><svg id="Layer_2" xmlns="http://www.w3.org/2000/svg" viewBox="0 0 720 111.08"><g id="Layer_1-2"><path d="m16.99,70.33l32.89,40.52,9.65-7.53-27.86-33.67,24.06-30.39-9.79-7.12-28.95,38.19ZM0,3.11v105.81h12.5V.38L0,3.11Z"/><path d="m70.6,88.81c0-7.57,2.52-13.35,7.55-17.32,5.02-3.97,12.34-5.96,21.94-5.96h14.41v-4.79c0-11.59-5.08-17.38-15.23-17.38-3.26,0-6.68.46-10.26,1.37-3.58.91-6.86,2.05-9.86,3.42l-3.67-8.9c3.72-2.1,7.72-3.72,12.03-4.86,4.3-1.14,8.49-1.71,12.56-1.71,17.58,0,26.37,9.45,26.37,28.34v47.91h-9.24l-1.5-8.21c-3.72,3.01-7.68,5.34-11.89,6.98-4.21,1.64-8.22,2.46-12.03,2.46-6.61,0-11.79-1.89-15.56-5.68-3.76-3.79-5.64-9.01-5.64-15.67m23.47,11.22c1.72,0,3.49-.23,5.34-.68,1.85-.46,3.7-1.05,5.55-1.78,1.85-.73,3.59-1.63,5.21-2.67,1.63-1.05,3.07-2.17,4.34-3.36v-17.52h-12.99c-6.59,0-11.39,1.14-14.41,3.42-3.02,2.28-4.53,5.89-4.53,10.82,0,7.85,3.83,11.77,11.5,11.77"/><path d="m161.21,108.93h-12.5V3.11l12.5-2.74v108.55Zm33.43-76.79l9.79,7.12-24.05,30.39,27.85,33.67-9.64,7.53-32.89-40.52,28.94-38.19Z"/><path d="m219.3,88.81c0-7.57,2.52-13.35,7.54-17.32,5.03-3.97,12.34-5.96,21.95-5.96h14.41v-4.79c0-11.59-5.07-17.38-15.22-17.38-3.27,0-6.68.46-10.26,1.37-3.58.91-6.87,2.05-9.85,3.42l-3.67-8.9c3.72-2.1,7.72-3.72,12.03-4.86,4.3-1.14,8.49-1.71,12.57-1.71,17.58,0,26.37,9.45,26.37,28.34v47.91h-9.25l-1.49-8.21c-3.72,3.01-7.67,5.34-11.89,6.98-4.21,1.64-8.22,2.46-12.03,2.46-6.62,0-11.8-1.89-15.56-5.68-3.76-3.79-5.64-9.01-5.64-15.67m23.47,11.22c1.71,0,3.5-.23,5.35-.68,1.85-.46,3.7-1.05,5.55-1.78,1.85-.73,3.58-1.63,5.21-2.67,1.62-1.05,3.06-2.17,4.33-3.36v-17.52h-12.99c-6.59,0-11.4,1.14-14.41,3.42-3.03,2.28-4.53,5.89-4.53,10.82,0,7.85,3.83,11.77,11.5,11.77"/><path d="m325.46,32.82c10.33,0,18.44,3.38,24.32,10.13,5.89,6.75,8.84,16.43,8.84,29.02s-2.92,21.95-8.77,28.61c-5.84,6.66-13.98,9.99-24.39,9.99s-18.44-3.33-24.32-9.99c-5.89-6.66-8.84-16.2-8.84-28.61s2.97-22.27,8.9-29.02c5.94-6.75,14.03-10.13,24.26-10.13m0,10.13c-6.52,0-11.53,2.46-15.02,7.39-3.49,4.93-5.24,12.14-5.24,21.63s1.74,16.5,5.24,21.28c3.49,4.79,8.49,7.19,15.02,7.19s11.66-2.4,15.16-7.19c3.48-4.79,5.23-11.88,5.23-21.28s-1.74-16.7-5.23-21.63c-3.49-4.93-8.54-7.39-15.16-7.39"/><path d="m430.49,51.36c-5.38-2.26-10.47-3.96-18.11-3.96-11.04,0-18.54,6.65-18.54,24.2s7.64,23.91,20.23,23.91c6.51,0,14.01-2.12,19.1-4.24l4.39,13.16c-6.65,3.96-16.41,6.65-26.74,6.65-24.2,0-36.08-14.29-36.08-39.33s11.89-39.62,36.37-39.62c10.47,0,19.1,2.55,25.04,6.37l-5.66,12.87Z"/><path d="m470.96,108.95h-18.96V3.4l18.96-3.4v108.95Z"/><path d="m557.7,72.17c0,24.05-13.16,38.91-35.23,38.91s-35.37-14.86-35.37-38.91,13.58-40.04,35.37-40.04,35.23,15.28,35.23,40.04Zm-51.22.14c0,15.85,5.24,24.06,15.99,24.06s15.85-8.21,15.85-24.06-5.09-25.47-15.85-25.47-15.99,8.92-15.99,25.47Z"/><path d="m638.21,108.95h-13.44l-1.84-7.64c-6.79,7.08-15.42,9.62-23.49,9.62-16.27,0-25.47-8.77-25.47-28.44v-48.11h19.24v47.83c0,8.35,3.4,12.45,12.88,12.45,4.81,0,10.19-1.98,12.88-3.96v-56.32h19.24v74.57Z"/><path d="m701.04,35.52V3.4l18.96-3.4v108.95h-13.16l-2.26-6.37c-6.08,5.52-13.44,8.35-20.66,8.35-19.53,0-29.57-13.73-29.57-39.62,0-24.06,12.17-39.2,32.69-39.2,4.81,0,10.19.99,14.01,3.4Zm0,55.04v-42.17c-4.1-1.13-6.93-1.42-10.61-1.42-10.9,0-16.84,8.92-16.84,25.33,0,15.14,4.81,23.49,13.73,23.49,4.24,0,9.06-1.56,13.73-5.23Z"/></g></svg>