<svg viewBox="0 0 481 267" fill="none" xmlns="http://www.w3.org/2000/svg"><path d="M250.014 233.525v30.289a1.776 1.776 0 0 1-1.781 1.778h-7.743a1.78 1.78 0 0 1-1.781-1.778v-29.14c0-7.842-4.502-12.127-11.726-12.127-7.953 0-13.296 4.915-13.296 15.053v26.214a1.776 1.776 0 0 1-1.782 1.778h-7.742a1.78 1.78 0 0 1-1.781-1.778v-69.581a1.776 1.776 0 0 1 1.781-1.778h7.77a1.78 1.78 0 0 1 1.782 1.778v25.808c3.45-5.335 8.794-8.038 16.228-8.038 12.006-.014 20.071 8.136 20.071 21.522zM426.532 233.525v30.289a1.776 1.776 0 0 1-1.782 1.778h-7.756a1.776 1.776 0 0 1-1.781-1.778v-29.14c0-7.842-4.503-12.127-11.726-12.127-7.953 0-13.297 4.915-13.297 15.053v26.214a1.776 1.776 0 0 1-1.781 1.778h-7.742a1.774 1.774 0 0 1-1.287-.506 1.78 1.78 0 0 1-.537-1.272v-48.688a1.779 1.779 0 0 1 1.782-1.779h7.742a1.784 1.784 0 0 1 1.781 1.779v4.901c3.451-5.335 8.795-8.038 16.228-8.038 12.077 0 20.156 8.15 20.156 21.536zM73.595 259.053a27.97 27.97 0 0 1-3.92-35.377 28.049 28.049 0 0 1 15.097-11.413 28.097 28.097 0 0 1 18.922.766 28.034 28.034 0 0 1 14.123 12.595 27.971 27.971 0 0 1-6.775 34.944 28.077 28.077 0 0 1-17.81 6.424 26.685 26.685 0 0 1-19.637-7.939zm19.636-3.025a15.811 15.811 0 0 0 6.295-1.152 15.775 15.775 0 0 0 5.319-3.553 17.168 17.168 0 0 0 4.711-11.811 17.17 17.17 0 0 0-4.711-11.812 16.696 16.696 0 0 0-23.241 0 17.167 17.167 0 0 0-4.712 11.812c0 4.393 1.686 8.62 4.712 11.811a15.792 15.792 0 0 0 11.557 4.663l.07.042zM139.84 222.127c2.693-6.175 7.756-8.556 15.022-8.766.144-.003.287.022.422.074a1.092 1.092 0 0 1 .686 1.005v8.065a1.752 1.752 0 0 1-1.599 1.765 17.967 17.967 0 0 0-9.706 3.5c-3.24 2.297-4.811 6.162-4.811 11.497v24.547a1.776 1.776 0 0 1-1.782 1.778h-7.742a1.78 1.78 0 0 1-1.781-1.778v-48.688a1.779 1.779 0 0 1 1.781-1.779h7.742a1.779 1.779 0 0 1 1.782 1.779l-.014 7.001zM358.575 213.347h7.743a1.784 1.784 0 0 1 1.781 1.779v48.688a1.78 1.78 0 0 1-1.781 1.778h-7.743a1.78 1.78 0 0 1-1.781-1.778v-5.742c-4.292 5.952-10.365 8.878-18.318 8.878a24.51 24.51 0 0 1-18.43-7.897 28.819 28.819 0 0 1-7.64-19.541c0-7.24 2.727-14.216 7.64-19.541a24.508 24.508 0 0 1 18.416-7.94c7.953 0 14.026 2.927 18.318 8.78v-5.601a1.79 1.79 0 0 1 .496-1.318 1.792 1.792 0 0 1 1.299-.545zm-18.317 42.905a16.106 16.106 0 0 0 11.823-4.705 16.54 16.54 0 0 0 4.713-12.014 16.122 16.122 0 0 0-4.713-11.917 16.96 16.96 0 0 0-11.831-4.806c-4.42 0-8.666 1.725-11.83 4.806a16.147 16.147 0 0 0-3.567 5.435 16.11 16.11 0 0 0-1.132 6.398 16.54 16.54 0 0 0 4.713 12.014 16.103 16.103 0 0 0 11.824 4.789zM302.878 192.455h-7.742a1.78 1.78 0 0 0-1.782 1.778v69.595a1.78 1.78 0 0 0 1.782 1.778h7.742a1.78 1.78 0 0 0 1.781-1.778v-69.595a1.78 1.78 0 0 0-1.781-1.778zM45.739 194.234v52.314l-30.633-52.763a2.678 2.678 0 0 0-2.314-1.4H1.782A1.778 1.778 0 0 0 0 194.163v69.595a1.776 1.776 0 0 0 1.78 1.778h8.416a1.781 1.781 0 0 0 1.781-1.778v-52.175l30.465 52.679a2.678 2.678 0 0 0 2.314 1.4h11.22a1.78 1.78 0 0 0 1.782-1.778V194.29a1.778 1.778 0 0 0-1.781-1.779h-8.416a1.778 1.778 0 0 0-1.823 1.723zM479.929 265.606h-9.215a2.673 2.673 0 0 1-2.343-1.4l-10.94-20.024h-10.576v19.604a1.776 1.776 0 0 1-1.781 1.778h-7.742a1.78 1.78 0 0 1-1.782-1.778v-69.594a1.779 1.779 0 0 1 1.782-1.779h7.742a1.778 1.778 0 0 1 1.781 1.779v39.656h9.566l10.968-19.114a2.69 2.69 0 0 1 .967-1.014 2.692 2.692 0 0 1 1.348-.387h9.397a1.073 1.073 0 0 1 .935.535 1.053 1.053 0 0 1-.009 1.076l-13.956 24.001 14.769 25.037a1.053 1.053 0 0 1 .024 1.08 1.06 1.06 0 0 1-.935.544zM285.612 200.731v-6.498a1.776 1.776 0 0 0-1.781-1.778h-11.74a7.526 7.526 0 0 0-5.316 2.198 7.5 7.5 0 0 0-2.202 5.308v13.386h-6.172a1.784 1.784 0 0 0-1.781 1.779v7.309a1.779 1.779 0 0 0 1.781 1.779h6.172v39.6a1.776 1.776 0 0 0 1.781 1.778h7.743a1.78 1.78 0 0 0 1.781-1.778v-39.6h7.953a1.784 1.784 0 0 0 1.781-1.779v-7.309a1.779 1.779 0 0 0-1.781-1.779h-7.953v-10.838h7.953a1.786 1.786 0 0 0 1.259-.521c.166-.165.297-.361.386-.577.09-.215.136-.447.136-.68zM181.665 233.847v-9.605h11.221a1.778 1.778 0 0 0 1.781-1.779v-7.309a1.778 1.778 0 0 0-1.781-1.779h-11.221v-19.142a1.776 1.776 0 0 0-1.781-1.778h-7.742a1.791 1.791 0 0 0-1.26.521 1.788 1.788 0 0 0-.522 1.257v19.114h-7.84a1.778 1.778 0 0 0-1.781 1.779v7.309a1.778 1.778 0 0 0 1.781 1.779h7.84v30.092c0 2.993 1.191 5.864 3.312 7.98a11.311 11.311 0 0 0 7.993 3.306h11.221a1.78 1.78 0 0 0 1.781-1.778v-6.498a1.776 1.776 0 0 0-1.781-1.778h-7.013a4.213 4.213 0 0 1-2.975-1.23 4.2 4.2 0 0 1-1.233-2.971v-17.49z" fill="#000A28"/><path d="m275.724 65.295-14.11 3.473-8.051-14.003-4.994-8.556-5.61-9.634-13.016-22.572H208.82l-52.78 91.27 10.561 18.204h8.065v14.003h-12.104a7.022 7.022 0 0 1-6.045-3.487l-14.587-25.205a6.988 6.988 0 0 1 0-7.001l56.819-98.258a7.012 7.012 0 0 1 6.045-3.487h29.174a7.02 7.02 0 0 1 6.046 3.487l19.103 33.018 2.483 4.327 5.61 9.62 2.497 4.313 6.017 10.488z" fill="url(#a)"/><path d="m216.899 100.975-19.09 33.018a7.022 7.022 0 0 1-6.045 3.501h-17.098l-18.612-32.207 10.575 18.204h21.039l21.124-36.52 8.107 14.004z" fill="url(#b)"/><path d="M275.724 72.255 261.137 97.46a7.01 7.01 0 0 1-6.046 3.501h-17.069l-5.611-9.634-2.496-4.313h21.109l10.562-18.204-1.964-3.515h16.116a6.993 6.993 0 0 1-.014 6.96z" fill="url(#c)"/><path d="M314.394 14.003h-21.11l-21.109 36.505-8.051-14.003 19.104-33.018A7.02 7.02 0 0 1 289.273 0h17.084l8.037 14.003z" fill="url(#d)"/><path d="m339.065 35.75-56.805 98.243a7.006 7.006 0 0 1-2.555 2.556 7.025 7.025 0 0 1-3.49.945h-29.217a7.025 7.025 0 0 1-3.49-.945 7.006 7.006 0 0 1-2.555-2.556l-16.607-28.706-4.951-8.667-5.61-9.634-2.497-4.313-6.045-10.46 14.11-3.501 8.065 14.003 2.497 4.313 2.496 4.313 5.611 9.634 2.482 4.298 8.065 14.003 2.497 4.313h21.109l52.78-91.382-10.562-18.204h-7.812L306.328 0h12.091a7.022 7.022 0 0 1 6.045 3.487l14.587 25.205a6.99 6.99 0 0 1 .014 7.057z" fill="url(#e)"/><path d="m229.943 50.522-10.562 18.204 2.02 3.5h-16.13a6.997 6.997 0 0 1 0-7l14.587-25.206a7.008 7.008 0 0 1 6.059-3.5h17.07l5.611 9.633 2.496 4.313-21.151.056z" fill="url(#f)"/><defs><linearGradient id="a" x1="136.291" y1="99.042" x2="255.414" y2="30.145" gradientUnits="userSpaceOnUse"><stop offset=".2" stop-color="#668CFF"/><stop offset=".49" stop-color="#0AF"/><stop offset=".8" stop-color="#00BFB5"/></linearGradient><linearGradient id="b" x1="167.723" y1="125.48" x2="215.19" y2="98.022" gradientUnits="userSpaceOnUse"><stop offset=".5" stop-color="#668CFF"/><stop offset="1" stop-color="#0AF" stop-opacity="0"/></linearGradient><linearGradient id="c" x1="235.343" y1="96.354" x2="279.068" y2="71.072" gradientUnits="userSpaceOnUse"><stop stop-color="#0AF" stop-opacity="0"/><stop offset=".4" stop-color="#00BFB5"/></linearGradient><linearGradient id="d" x1="263.128" y1="34.881" x2="310.595" y2="7.438" gradientUnits="userSpaceOnUse"><stop stop-color="#00BFB5" stop-opacity="0"/><stop offset=".5" stop-color="#00CC7C"/></linearGradient><linearGradient id="e" x1="225.497" y1="107.234" x2="344.605" y2="38.351" gradientUnits="userSpaceOnUse"><stop offset=".2" stop-color="#0AF"/><stop offset=".51" stop-color="#00BFB5"/><stop offset=".8" stop-color="#00CC7C"/></linearGradient><linearGradient id="f" x1="201.905" y1="66.415" x2="245.63" y2="41.12" gradientUnits="userSpaceOnUse"><stop offset=".6" stop-color="#0AF"/><stop offset="1" stop-color="#00BFB5" stop-opacity="0"/></linearGradient></defs></svg>
