<svg xmlns="http://www.w3.org/2000/svg" role="img" viewBox="-17.92 -14.92 1191.84 462.84"><defs><style>.cls-1{fill:none}.cls-2{fill:#3b697e}</style></defs><path d="M327.451 275.45a54.02 54.02 0 1 0-54.02-54.022 54.083 54.083 0 0 0 54.02 54.022zm.001-88.388a34.571 34.571 0 1 1-34.57 34.571 34.571 34.571 0 0 1 34.57-34.57z" class="cls-1"/><path d="M414.208 216.899c0-110.102-89.575-199.677-199.677-199.677S14.855 106.797 14.855 216.9s89.574 199.676 199.676 199.676S414.208 327.001 414.208 216.9zm-289.39 9.335h-18.005a34.946 34.946 0 1 1 .275-6.138h22.048v.586l.063-.025 21.808 54.523 24.724-57.219h29.097l26.055-64.718 23.456 67.02h12.97a60.158 60.158 0 0 1 27.168-49.123l-57.828-54.936a34.584 34.584 0 1 1 4.343-4.341l59 56.05a60.161 60.161 0 1 1-1.977 105.963l-57.492 57.492-4.34-4.339 56.52-56.52a60.173 60.173 0 0 1-25.202-44.11h-17.516l-19.504-55.724-21.509 53.423h-29.207l-28.977 67.06zm54.324 127.35a34.571 34.571 0 1 1 34.57 34.57 34.571 34.571 0 0 1-34.57-34.57z" class="cls-1"/><path d="M423.413 216.899c0-115.179-93.704-208.882-208.882-208.882S5.65 101.72 5.65 216.899 99.353 425.78 214.531 425.78s208.882-93.704 208.882-208.882zm-408.558 0c0-110.102 89.574-199.677 199.676-199.677S414.208 106.797 414.208 216.9 324.633 416.575 214.53 416.575 14.855 327.001 14.855 216.9z" class="cls-2"/><circle cx="327.452" cy="221.633" r="34.571" class="cls-2"/><circle cx="213.713" cy="353.584" r="34.571" class="cls-2"/><path d="M208.972 224.098l21.51-53.423 19.503 55.725h17.516a60.173 60.173 0 0 0 25.202 44.11l-56.52 56.52 4.34 4.338 57.492-57.492a60.155 60.155 0 1 0 1.977-105.963l-59-56.05a34.578 34.578 0 1 0-4.343 4.34l57.828 54.937a60.158 60.158 0 0 0-27.168 49.123h-12.97l-23.456-67.02-26.055 64.718H175.73l-24.724 57.22-21.808-54.524-.063.025v-.586h-22.048a34.581 34.581 0 1 0-.275 6.138h18.005l25.97 64.925 28.977-67.06zm118.48-56.69a54.02 54.02 0 1 1-54.02 54.02 54.082 54.082 0 0 1 54.02-54.02z" class="cls-2"/><path d="M696.534 187.937a36.487 36.487 0 0 0-12.759-9.415 38.826 38.826 0 0 0-30.968 0 36.43 36.43 0 0 0-12.76 9.415 44.635 44.635 0 0 0-8.547 15.237 70.67 70.67 0 0 0 0 41.373 43.208 43.208 0 0 0 8.547 15.114 37.004 37.004 0 0 0 12.76 9.29 38.826 38.826 0 0 0 30.968 0 37.062 37.062 0 0 0 12.76-9.29 43.307 43.307 0 0 0 8.547-15.114 70.624 70.624 0 0 0 0-41.373 44.74 44.74 0 0 0-8.548-15.237zm297.171-2.105a36.491 36.491 0 0 0-11.398-7.68 36.062 36.062 0 0 0-14.493-2.85 36.695 36.695 0 0 0-14.74 2.85 34.016 34.016 0 0 0-11.273 7.804 37.356 37.356 0 0 0-7.433 11.519 43.813 43.813 0 0 0-3.22 14h73.582a43.254 43.254 0 0 0-3.345-14.124 36.107 36.107 0 0 0-7.68-11.519z" class="cls-1"/><path fill="#35354d" d="M557.18 263.996q-8.797 8.178-24.405 8.177a34.858 34.858 0 0 1-17.095-3.965 33.19 33.19 0 0 1-11.643-10.529 46.377 46.377 0 0 1-6.566-14.99 71.14 71.14 0 0 1-2.105-17.341 86.992 86.992 0 0 1 1.981-18.706 46.809 46.809 0 0 1 6.566-15.98 34.03 34.03 0 0 1 12.263-11.149q7.675-4.21 19.076-4.212 13.38 0 21.307 6.69 7.927 6.688 10.405 18.829h21.803a50.76 50.76 0 0 0-5.946-19.696 44.06 44.06 0 0 0-12.015-13.75 49.843 49.843 0 0 0-16.848-8.051 77.435 77.435 0 0 0-20.44-2.601q-15.114 0-26.509 5.326a52.935 52.935 0 0 0-18.952 14.617 62.163 62.163 0 0 0-11.273 21.8 94.014 94.014 0 0 0-3.717 26.883 86.191 86.191 0 0 0 3.84 26.385 57.782 57.782 0 0 0 11.397 20.687 50.14 50.14 0 0 0 18.829 13.38 66.766 66.766 0 0 0 25.891 4.706q24.527 0 38.772-12.883 14.244-12.878 17.715-36.668h-21.556q-1.986 14.867-10.776 23.041zm157.44-87.828a56.34 56.34 0 0 0-19.447-14.244q-11.52-5.203-26.882-5.203-15.115 0-26.756 5.203a56.01 56.01 0 0 0-19.573 14.244 59.75 59.75 0 0 0-11.892 21.307 85.3 85.3 0 0 0-3.965 26.386 84.117 84.117 0 0 0 3.965 26.262 59.853 59.853 0 0 0 11.892 21.183 54.61 54.61 0 0 0 19.573 14.12q11.643 5.077 26.756 5.08 15.36 0 26.882-5.08a54.909 54.909 0 0 0 19.447-14.12 59.95 59.95 0 0 0 11.892-21.183 84.178 84.178 0 0 0 3.965-26.262 85.362 85.362 0 0 0-3.965-26.386 59.846 59.846 0 0 0-11.892-21.307zm-9.538 68.38a43.307 43.307 0 0 1-8.548 15.113 37.062 37.062 0 0 1-12.759 9.29 38.826 38.826 0 0 1-30.968 0 37.004 37.004 0 0 1-12.76-9.29 43.208 43.208 0 0 1-8.547-15.114 70.67 70.67 0 0 1 0-41.373 44.635 44.635 0 0 1 8.548-15.237 36.43 36.43 0 0 1 12.759-9.415 38.826 38.826 0 0 1 30.968 0 36.487 36.487 0 0 1 12.76 9.415 44.74 44.74 0 0 1 8.547 15.237 70.624 70.624 0 0 1 0 41.373zm81.141-80.89q-11.147 7.433-18.83 23.041h-.493v-27.005h-19.82V287.78h21.057v-56.984a87.532 87.532 0 0 1 2.478-21.924 41.994 41.994 0 0 1 7.93-16.228 33.952 33.952 0 0 1 14.367-10.158q8.92-3.468 21.556-3.468V156.72q-17.096-.493-28.245 6.937zm80.761-42.366h-21.06v38.401h-21.801v18.582h21.801v81.51a48.664 48.664 0 0 0 1.734 14.37 17.432 17.432 0 0 0 5.326 8.423 20.57 20.57 0 0 0 9.415 4.088 75.585 75.585 0 0 0 13.999 1.115h16.104v-18.582h-9.664a70.343 70.343 0 0 1-8.05-.37 10.361 10.361 0 0 1-4.833-1.611 6.107 6.107 0 0 1-2.354-3.469 23.006 23.006 0 0 1-.617-5.946v-79.528h25.518v-18.581h-25.518zm148.522 60.452a56.135 56.135 0 0 0-18.085-17.962q-11.276-7.063-28.367-7.06a58.263 58.263 0 0 0-24.156 4.953 56.797 56.797 0 0 0-19.078 13.875 63.947 63.947 0 0 0-12.51 21.058 77.064 77.064 0 0 0-4.461 26.758 102.51 102.51 0 0 0 4.338 27.004 58.868 58.868 0 0 0 11.519 21.307 52.428 52.428 0 0 0 18.953 13.873q11.272 4.955 26.632 4.956 21.8 0 36.173-10.902 14.364-10.898 18.58-32.455h-20.81q-2.73 12.635-11.272 18.829-8.549 6.198-21.927 6.195a43.577 43.577 0 0 1-18.085-3.468 35.42 35.42 0 0 1-12.636-9.291 36.128 36.128 0 0 1-7.184-13.38 50.745 50.745 0 0 1-1.981-15.98h95.879a102.06 102.06 0 0 0-2.108-24.526 71.062 71.062 0 0 0-9.414-23.784zm-84.357 29.73a43.813 43.813 0 0 1 3.219-13.999 37.356 37.356 0 0 1 7.433-11.52 34.016 34.016 0 0 1 11.272-7.803 36.695 36.695 0 0 1 14.74-2.85 36.062 36.062 0 0 1 14.494 2.85 36.491 36.491 0 0 1 11.398 7.68 36.107 36.107 0 0 1 7.68 11.52 43.254 43.254 0 0 1 3.345 14.122zm170.95 7.184l44.1-58.964h-25.271l-31.961 44.843-30.721-44.843h-27.006l44.595 60.698-48.063 67.389h25.518l35.677-53.019 35.676 53.019h27.006l-49.55-69.123z"/></svg>